<svg version="1.1" id="Layer_1" xmlns="http://www.w3.org/2000/svg" xmlns:xlink="http://www.w3.org/1999/xlink" x="0px" y="0px"
	 width="100%" viewBox="0 0 456 456" enable-background="new 0 0 456 456" xml:space="preserve">
<path fill="#C92828" opacity="1.000000" stroke="none" 
	d="
M210.000000,457.000000 
	C140.019043,457.000000 70.538078,457.000000 1.057118,457.000000 
	C1.038080,456.852417 1.002352,456.704834 1.002350,456.557251 
	C0.999986,304.765503 1.000000,152.973770 1.000000,1.091018 
	C152.897629,1.091018 304.795349,1.091018 456.846527,1.091018 
	C456.846527,152.999878 456.846527,304.999908 456.846527,457.000000 
	C374.787994,457.000000 292.644012,457.000000 210.000000,457.000000 
M276.253204,139.710220 
	C241.301880,143.871078 231.896484,182.674026 248.899139,204.508926 
	C236.039856,219.383972 233.356216,235.828812 249.411743,247.130905 
	C247.018433,249.617966 244.206635,251.822815 242.337280,254.650650 
	C239.537064,258.886536 236.414093,263.302155 235.159225,268.094543 
	C230.984772,284.037018 239.119125,296.625854 256.509064,301.928894 
	C270.950317,306.332703 285.715393,306.521942 300.533844,304.357513 
	C310.916779,302.840942 320.560852,299.395111 328.470337,292.161804 
	C340.587097,281.080933 343.107422,262.068115 333.736450,250.074112 
	C326.675140,241.036255 316.461365,237.920334 305.573639,237.072601 
	C293.290436,236.116180 280.953644,235.861511 268.662567,234.986847 
	C263.663788,234.631104 258.850250,232.688263 257.293121,227.438492 
	C255.715347,222.118973 257.863831,217.466125 261.798859,213.705673 
	C281.278351,224.604858 306.984009,219.200302 318.525726,206.508881 
	C329.872131,194.032166 331.132141,174.637177 321.508301,158.476990 
	C321.598053,158.352524 321.685364,158.121124 321.777832,158.119049 
	C325.440582,158.036484 329.103760,157.973480 332.766937,157.910553 
	C339.039825,157.802780 340.698944,155.967453 340.591766,149.251022 
	C340.486206,142.639496 339.032593,141.264954 332.902588,141.033676 
	C318.961426,140.507675 305.029968,139.718903 291.088135,139.216934 
	C286.447510,139.049866 281.787109,139.431366 276.253204,139.710220 
M211.976746,171.553848 
	C206.643967,154.115143 196.283646,141.951050 177.331497,139.229034 
	C162.112152,137.043167 149.177765,142.240204 137.928070,152.282852 
	C135.681366,154.288498 133.436432,156.296143 130.305237,159.094055 
	C130.305237,155.878769 130.316910,154.066391 130.302109,152.254211 
	C130.285767,150.255432 130.097748,148.245743 130.247406,146.260620 
	C130.516922,142.685608 128.856003,140.974731 125.411301,140.785934 
	C123.419472,140.676788 121.415993,140.474243 119.432144,140.581039 
	C112.671150,140.945007 112.067314,141.609161 112.066818,148.225433 
	C112.063194,196.366669 112.064865,244.507904 112.064857,292.649139 
	C112.064850,305.674652 113.126747,306.490143 126.409302,305.362946 
	C131.242661,304.952759 132.988693,302.933807 132.893555,298.070740 
	C132.665543,286.415680 132.900131,274.751709 132.935196,263.091309 
	C132.951508,257.661926 132.937988,252.232452 132.937988,245.875687 
	C135.423172,247.976700 137.235489,249.346161 138.862289,250.908783 
	C160.472809,271.666840 198.145828,263.320801 209.397476,234.164642 
	C217.234833,213.855881 217.029099,193.210251 211.976746,171.553848 
z"/>
<path fill="#FEFCFC" opacity="1.000000" stroke="none" 
	d="
M276.694489,139.636139 
	C281.787109,139.431366 286.447510,139.049866 291.088135,139.216934 
	C305.029968,139.718903 318.961426,140.507675 332.902588,141.033676 
	C339.032593,141.264954 340.486206,142.639496 340.591766,149.251022 
	C340.698944,155.967453 339.039825,157.802780 332.766937,157.910553 
	C329.103760,157.973480 325.440582,158.036484 321.777832,158.119049 
	C321.685364,158.121124 321.598053,158.352524 321.508301,158.476990 
	C331.132141,174.637177 329.872131,194.032166 318.525726,206.508881 
	C306.984009,219.200302 281.278351,224.604858 261.798859,213.705673 
	C257.863831,217.466125 255.715347,222.118973 257.293121,227.438492 
	C258.850250,232.688263 263.663788,234.631104 268.662567,234.986847 
	C280.953644,235.861511 293.290436,236.116180 305.573639,237.072601 
	C316.461365,237.920334 326.675140,241.036255 333.736450,250.074112 
	C343.107422,262.068115 340.587097,281.080933 328.470337,292.161804 
	C320.560852,299.395111 310.916779,302.840942 300.533844,304.357513 
	C285.715393,306.521942 270.950317,306.332703 256.509064,301.928894 
	C239.119125,296.625854 230.984772,284.037018 235.159225,268.094543 
	C236.414093,263.302155 239.537064,258.886536 242.337280,254.650650 
	C244.206635,251.822815 247.018433,249.617966 249.411743,247.130905 
	C233.356216,235.828812 236.039856,219.383972 248.899139,204.508926 
	C231.896484,182.674026 241.301880,143.871078 276.694489,139.636139 
M272.718811,252.013657 
	C264.016907,251.169174 260.503967,257.928101 256.967560,263.635529 
	C251.108551,273.091431 254.725540,282.797455 265.131439,286.599365 
	C269.295807,288.120911 273.791962,289.112885 278.209900,289.487396 
	C289.417938,290.437531 300.577759,290.252075 310.496307,283.777924 
	C316.839935,279.637268 319.332703,273.490112 318.453857,266.152100 
	C317.557892,258.671204 311.836639,255.881454 305.489288,254.085114 
	C303.425323,253.500992 301.240173,253.184982 299.094055,253.079254 
	C290.616058,252.661621 282.131531,252.376160 272.718811,252.013657 
M261.915558,170.815094 
	C257.153625,189.202728 265.426849,202.394440 282.496857,203.632095 
	C294.697479,204.516693 303.966034,198.517181 307.105255,187.703186 
	C310.793518,174.997787 306.685822,162.938217 296.855194,157.610443 
	C283.490021,150.367081 268.129761,155.852020 261.915558,170.815094 
z"/>
<path fill="#FEFCFC" opacity="1.000000" stroke="none" 
	d="
M212.063141,171.949997 
	C217.029099,193.210251 217.234833,213.855881 209.397476,234.164642 
	C198.145828,263.320801 160.472809,271.666840 138.862289,250.908783 
	C137.235489,249.346161 135.423172,247.976700 132.937988,245.875687 
	C132.937988,252.232452 132.951508,257.661926 132.935196,263.091309 
	C132.900131,274.751709 132.665543,286.415680 132.893555,298.070740 
	C132.988693,302.933807 131.242661,304.952759 126.409302,305.362946 
	C113.126747,306.490143 112.064850,305.674652 112.064857,292.649139 
	C112.064865,244.507904 112.063194,196.366669 112.066818,148.225433 
	C112.067314,141.609161 112.671150,140.945007 119.432144,140.581039 
	C121.415993,140.474243 123.419472,140.676788 125.411301,140.785934 
	C128.856003,140.974731 130.516922,142.685608 130.247406,146.260620 
	C130.097748,148.245743 130.285767,150.255432 130.302109,152.254211 
	C130.316910,154.066391 130.305237,155.878769 130.305237,159.094055 
	C133.436432,156.296143 135.681366,154.288498 137.928070,152.282852 
	C149.177765,142.240204 162.112152,137.043167 177.331497,139.229034 
	C196.283646,141.951050 206.643967,154.115143 212.063141,171.949997 
M153.771866,241.960571 
	C168.573730,248.098099 182.232803,243.079025 188.559570,228.469193 
	C196.465149,210.213470 196.381287,191.426041 189.405609,173.009216 
	C183.381714,157.105240 167.026276,151.579498 152.543991,160.583191 
	C146.029739,164.633118 140.667969,170.609451 135.071823,176.010666 
	C133.730484,177.305283 132.945587,179.784042 132.917221,181.732956 
	C132.730469,194.559982 132.762299,207.391647 132.892319,220.220078 
	C132.909241,221.888412 133.402481,224.074081 134.518433,225.122147 
	C140.556137,230.792587 146.859344,236.180344 153.771866,241.960571 
z"/>
<path fill="#CA2A2A" opacity="1.000000" stroke="none" 
	d="
M273.184143,252.027664 
	C282.131531,252.376160 290.616058,252.661621 299.094055,253.079254 
	C301.240173,253.184982 303.425323,253.500992 305.489288,254.085114 
	C311.836639,255.881454 317.557892,258.671204 318.453857,266.152100 
	C319.332703,273.490112 316.839935,279.637268 310.496307,283.777924 
	C300.577759,290.252075 289.417938,290.437531 278.209900,289.487396 
	C273.791962,289.112885 269.295807,288.120911 265.131439,286.599365 
	C254.725540,282.797455 251.108551,273.091431 256.967560,263.635529 
	C260.503967,257.928101 264.016907,251.169174 273.184143,252.027664 
z"/>
<path fill="#C92A2A" opacity="1.000000" stroke="none" 
	d="
M262.008057,170.417969 
	C268.129761,155.852020 283.490021,150.367081 296.855194,157.610443 
	C306.685822,162.938217 310.793518,174.997787 307.105255,187.703186 
	C303.966034,198.517181 294.697479,204.516693 282.496857,203.632095 
	C265.426849,202.394440 257.153625,189.202728 262.008057,170.417969 
z"/>
<path fill="#C92929" opacity="1.000000" stroke="none" 
	d="
M153.421448,241.813049 
	C146.859344,236.180344 140.556137,230.792587 134.518433,225.122147 
	C133.402481,224.074081 132.909241,221.888412 132.892319,220.220078 
	C132.762299,207.391647 132.730469,194.559982 132.917221,181.732956 
	C132.945587,179.784042 133.730484,177.305283 135.071823,176.010666 
	C140.667969,170.609451 146.029739,164.633118 152.543991,160.583191 
	C167.026276,151.579498 183.381714,157.105240 189.405609,173.009216 
	C196.381287,191.426041 196.465149,210.213470 188.559570,228.469193 
	C182.232803,243.079025 168.573730,248.098099 153.421448,241.813049 
z"/>
</svg>